# xmcd
#
# Track frame offsets:
#	150
#	11320
#	23474
#	38037
#	51321
#	63483
#	75402
#	91322
#	103660
#	115294
#	133113
#	145052
#	155277
#
# Disc length: 2221 seconds
#
# Revision: 1
# Processed by: cddbd v1.5.2PL0 Copyright (c) Steve Scherf et al.
# Submitted via: audiograbber 1.83.01
#
DISCID=9a08ab0d
DTITLE=Woody Pines and the Lonesome Two - Woody Pines and the Lonesome Two
DYEAR=2008
DGENRE=Blues
TTITLE0=How You Want it Done
TTITLE1=Reefer Man
TTITLE2=Richland Woman
TTITLE3=Santa Fe Blues
TTITLE4=Delta Bound
TTITLE5=Pretty Blue Eyes
TTITLE6=Nashville
TTITLE7=Deal Go Down
TTITLE8=Bound To Lose
TTITLE9=One Dime Blues
TTITLE10=Root Hog Or Die
TTITLE11=Farmland Blues
TTITLE12=Weed Smoker's Dream
EXTD=
EXTT0=
EXTT1=
EXTT2=
EXTT3=
EXTT4=
EXTT5=
EXTT6=
EXTT7=
EXTT8=
EXTT9=
EXTT10=
EXTT11=
EXTT12=
PLAYORDER=
